<?xml version="1.0" encoding="UTF-8" standalone="no"?>
<!DOCTYPE svg PUBLIC "-//W3C//DTD SVG 1.1//EN" "http://www.w3.org/Graphics/SVG/1.1/DTD/svg11.dtd">
<svg width="100%" height="100%" viewBox="0 0 12 12" version="1.1" xmlns="http://www.w3.org/2000/svg" xmlns:xlink="http://www.w3.org/1999/xlink" xml:space="preserve" xmlns:serif="http://www.serif.com/" style="fill-rule:evenodd;clip-rule:evenodd;stroke-linejoin:round;stroke-miterlimit:2;">
    <path d="M10.173,0L1.827,0C0.825,0 -0,0.825 0,1.827L0,10.173C0,11.183 0.818,12 1.827,12L10.173,12C11.175,12 12,11.175 12,10.173L12,1.827C12,0.825 11.175,0 10.173,0ZM2.4,5.4L1.2,5.4L1.2,4.2L2.4,4.2L2.4,5.4ZM1.2,6.6L2.4,6.6L2.4,7.8L1.2,7.8L1.2,6.6ZM10.8,5.4L9.6,5.4L9.6,4.2L10.8,4.2L10.8,5.4ZM9.6,6.6L10.8,6.6L10.8,7.8L9.6,7.8L9.6,6.6ZM10.8,1.644L10.8,2.4L9.6,2.4L9.6,1.2L10.356,1.2C10.6,1.2 10.8,1.4 10.8,1.644ZM1.644,1.2L2.4,1.2L2.4,2.4L1.2,2.4L1.2,1.644C1.2,1.4 1.4,1.2 1.644,1.2ZM1.2,10.356L1.2,9.6L2.4,9.6L2.4,10.8L1.644,10.8C1.4,10.8 1.2,10.6 1.2,10.356ZM10.8,10.356C10.8,10.6 10.6,10.8 10.356,10.8L9.6,10.8L9.6,9.6L10.8,9.6L10.8,10.356Z" style="fill:rgb(179,179,179);fill-opacity:0.75;fill-rule:nonzero;"/>
</svg>
